# xmcd CD database file
#
# Track frame offsets:
#	150
#	14585
#	27676
#	40519
#	51522
#	63012
#	74474
#	87312
#	98724
#	111469
#	122659
#	134924
#	148007
#	162252
#	173073
#	186510
#	197110
#	212823
#
# Disc length: 3015 seconds
#
# Revision: 2
# Processed by: cddbd v1.5.2PL0 Copyright (c) Steve Scherf et al.
# Submitted via: CDex 1.51
#
DISCID=180bc512
DTITLE=Count Basie - Vol.10 - Shoutin' Blues
DYEAR=1900
DGENRE=Jazz
TTITLE0=Just An Old Manuscript
TTITLE1=Katy
TTITLE2=She's A Wine-O
TTITLE3=Did You Ever See Jackie Robinson Hit That Ball ¿
TTITLE4=Shoutin' Blues
TTITLE5=After You've Gone
TTITLE6=St. Louis Baby
TTITLE7=Wonderful Thing
TTITLE8=The Slider
TTITLE9=Mine, Too
TTITLE10=Walking Slow Behind You
TTITLE11=Normania  (Blee Blop Blues)
TTITLE12=Rocky Mountain Blues
TTITLE13=Rat Race
TTITLE14=Solid As A Rock
TTITLE15=Sweets
TTITLE16=Nails
TTITLE17=Beaver Junction
EXTD=
EXTT0=
EXTT1=
EXTT2=
EXTT3=
EXTT4=
EXTT5=
EXTT6=
EXTT7=
EXTT8=
EXTT9=
EXTT10=
EXTT11=
EXTT12=
EXTT13=
EXTT14=
EXTT15=
EXTT16=
EXTT17=
PLAYORDER=
